<svg id="Camada_1" data-name="Camada 1" xmlns="http://www.w3.org/2000/svg" viewBox="0 0 140.4 195.46"><defs><style>.cls-1{fill:#fff;}.cls-2{fill:#c23949;}.cls-3{fill:#ebc200;}.cls-4{fill:#004d96;}</style></defs><title>emblem-real-madrid</title><path class="cls-1" d="M99.17,59.18a1.48,1.48,0,1,1,1.48-1.48,1.48,1.48,0,0,1-1.48,1.48ZM12,127.76A59.44,59.44,0,1,1,71.45,187.2,59.56,59.56,0,0,1,12,127.76ZM94.77,37a2.65,2.65,0,1,1-3.23,1.91A2.65,2.65,0,0,1,94.77,37Zm2.41-5.21a1.48,1.48,0,1,1-1.48,1.48,1.48,1.48,0,0,1,1.48-1.48ZM96,26.53A1.48,1.48,0,1,1,94.48,28,1.48,1.48,0,0,1,96,26.53Zm18.27,13.92a1.48,1.48,0,1,1-1.48,1.47,1.47,1.47,0,0,1,1.48-1.47ZM113,35.18a1.48,1.48,0,1,1-1.48,1.48A1.48,1.48,0,0,1,113,35.18Zm-2.2-4.63A1.48,1.48,0,1,1,109.32,32a1.48,1.48,0,0,1,1.48-1.48Zm-3.5-4.12a1.48,1.48,0,1,1-1.48,1.48,1.48,1.48,0,0,1,1.48-1.48ZM103,23.3a1.48,1.48,0,1,1-1.47,1.48A1.48,1.48,0,0,1,103,23.3Zm-4.63-1.81A1.48,1.48,0,1,1,96.88,23a1.48,1.48,0,0,1,1.48-1.47Zm-4.72.39a1.48,1.48,0,1,1-1.48,1.48,1.48,1.48,0,0,1,1.48-1.48Zm-3.46-4a1.48,1.48,0,1,1-1.48,1.48,1.48,1.48,0,0,1,1.48-1.48Zm-4.53-3a1.48,1.48,0,1,1-1.48,1.48,1.48,1.48,0,0,1,1.48-1.48Zm-4.7-1.74a1.48,1.48,0,1,1-1.47,1.48,1.48,1.48,0,0,1,1.47-1.48Zm-4.82-.84a1.48,1.48,0,1,1-1.47,1.48,1.48,1.48,0,0,1,1.47-1.48ZM30.53,51.14a2.65,2.65,0,1,1,1-3.6,2.65,2.65,0,0,1-1,3.6Zm18.93-9a2.65,2.65,0,1,1,1.91-3.23,2.65,2.65,0,0,1-1.91,3.23Zm22-2.78a2.65,2.65,0,1,1,2.65-2.65,2.65,2.65,0,0,1-2.65,2.65ZM45.72,34.76a1.48,1.48,0,1,1,1.48-1.48,1.48,1.48,0,0,1-1.48,1.48Zm1.23-5.28A1.48,1.48,0,1,1,48.42,28a1.48,1.48,0,0,1-1.48,1.48ZM28.68,43.4a1.48,1.48,0,1,1,1.48-1.48,1.48,1.48,0,0,1-1.48,1.48Zm1.22-5.27a1.48,1.48,0,1,1,1.48-1.48,1.48,1.48,0,0,1-1.48,1.48Zm2.2-4.63A1.48,1.48,0,1,1,33.58,32,1.48,1.48,0,0,1,32.1,33.5Zm3.5-4.12a1.48,1.48,0,1,1,1.48-1.48,1.48,1.48,0,0,1-1.48,1.48Zm4.3-3.13a1.48,1.48,0,1,1,1.47-1.48,1.48,1.48,0,0,1-1.47,1.48Zm4.63-1.81A1.48,1.48,0,1,1,46,23a1.48,1.48,0,0,1-1.47,1.48Zm4.72.39a1.48,1.48,0,1,1,1.48-1.47,1.47,1.47,0,0,1-1.48,1.47Zm3.46-4a1.48,1.48,0,1,1,1.47-1.48,1.48,1.48,0,0,1-1.47,1.48Zm4.53-3a1.48,1.48,0,1,1,1.48-1.47,1.48,1.48,0,0,1-1.48,1.47ZM62,16.1a1.48,1.48,0,1,1,1.48-1.48A1.48,1.48,0,0,1,62,16.1Zm9.5,14.45a1.48,1.48,0,1,1,1.48-1.48,1.48,1.48,0,0,1-1.48,1.48Zm0-5.35a1.48,1.48,0,1,1,1.48-1.48,1.48,1.48,0,0,1-1.48,1.48Zm0-5.35a1.48,1.48,0,1,1,1.48-1.48,1.48,1.48,0,0,1-1.48,1.48Zm-4.68-4.59a1.48,1.48,0,1,1,1.48-1.48,1.48,1.48,0,0,1-1.48,1.48Zm48.16,31.24a2.65,2.65,0,1,1-3.6,1,2.65,2.65,0,0,1,3.6-1Zm-34,7.75a1.48,1.48,0,1,1,1.48-1.48,1.48,1.48,0,0,1-1.48,1.48ZM43.72,59.18A1.48,1.48,0,1,1,45.2,57.7a1.48,1.48,0,0,1-1.48,1.48ZM62,54.24a1.48,1.48,0,1,1,1.48-1.48A1.48,1.48,0,0,1,62,54.24Z" transform="translate(-1.25 -2.5)"/><path class="cls-2" d="M82.42,43.61a6.61,6.61,0,0,0,1.47,2.13q-2-.3-4.07-.51a6.17,6.17,0,0,0,1.94-1.71,3.38,3.38,0,0,0,.66.08Zm-21.95,0a3.43,3.43,0,0,0,.68-.08,6.15,6.15,0,0,0,1.94,1.71q-2,.2-4.07.51a6.14,6.14,0,0,0,1.45-2.13ZM52.58,47q-1.79.42-3.55.91A5.74,5.74,0,0,0,50.19,45,5.74,5.74,0,0,0,52.58,47ZM39,51.41a6.14,6.14,0,0,0,.76-1.87l.2,0a3.3,3.3,0,0,0,1-.43,6.16,6.16,0,0,0,1.84.84q-1.91.7-3.78,1.5Zm32.44-9.07a5.74,5.74,0,0,0,1.86,2.5l-1.86,0-1.86,0a5.74,5.74,0,0,0,1.86-2.5ZM102,49.07a3.27,3.27,0,0,0,1,.43l.2,0a6.19,6.19,0,0,0,.77,1.87q-1.87-.79-3.78-1.5a6.17,6.17,0,0,0,1.84-.84Zm-8.09-1.19q-1.76-.49-3.55-.91A5.74,5.74,0,0,0,92.71,45a5.75,5.75,0,0,0,1.15,2.86Zm4.59-11.55a3.31,3.31,0,0,0,2-2.4,34.38,34.38,0,0,1,4.83,1.39,11.3,11.3,0,0,1,3.24,2A25.53,25.53,0,0,1,110,44.55,4,4,0,0,0,108,46.94c-.58,1.53-.58,3.09,1.05,4.24a2.63,2.63,0,0,1-2.78-2.77,3.32,3.32,0,1,0-5.77-2.95,3.51,3.51,0,0,0-.09.58,2.62,2.62,0,0,1-4.65-1.51c2.79.55,4-.85,4.44-2.73.41-1.58.25-3.16-1.57-4.12a3.62,3.62,0,0,0-.2-1.34Z" transform="translate(-1.25 -2.5)"/><path class="cls-2" d="M51.42,29.78C56.7,26.85,63.61,26.33,69,27.12v.39a2.93,2.93,0,0,0,.62,3.83,3.09,3.09,0,0,0-2.07,2.4c-2,.48-2.55,2-2.55,3.6,0,1.94.78,3.59,3.62,3.75a2.62,2.62,0,0,1-5,.06,3.28,3.28,0,0,0,.11-.85,3.32,3.32,0,1,0-6.24,1.58,2.62,2.62,0,0,1-4.84,1.24c2.71-.86,3.06-2.65,2.57-4.53-.41-1.58-1.31-2.88-3.36-2.85a3.26,3.26,0,0,0-1.46-1.5,19.78,19.78,0,0,1,1-4.44Zm22.5-2.66c5.36-.79,12.27-.27,17.55,2.66a19.77,19.77,0,0,1,1,4.44A3.28,3.28,0,0,0,91,35.72c-2.05,0-3,1.27-3.36,2.85-.48,1.88-.14,3.68,2.57,4.53a2.62,2.62,0,0,1-4.84-1.23A3.32,3.32,0,0,0,82.49,37a3.32,3.32,0,0,0-3.32,3.32,3.21,3.21,0,0,0,.12.85,2.62,2.62,0,0,1-5-.06c2.83-.16,3.62-1.81,3.62-3.75,0-1.63-.55-3.12-2.54-3.6a3.09,3.09,0,0,0-2.07-2.4,2.93,2.93,0,0,0,.62-3.83v-.39ZM37.65,35.33a34.41,34.41,0,0,1,4.83-1.4,3.31,3.31,0,0,0,2,2.4,3.64,3.64,0,0,0-.2,1.34c-1.81,1-2,2.54-1.57,4.12.48,1.88,1.65,3.29,4.44,2.73A2.62,2.62,0,0,1,42.46,46a3.39,3.39,0,0,0-.09-.58,3.32,3.32,0,0,0-6.43,1.65,3.27,3.27,0,0,0,.67,1.3,2.62,2.62,0,0,1-2.78,2.77c1.63-1.15,1.63-2.71,1.05-4.24a4,4,0,0,0-2-2.39,25.64,25.64,0,0,1,1.48-7.26,11.24,11.24,0,0,1,3.24-2Zm38.53,17L71.45,54l-4.72-1.76,4.72-1.76,4.73,1.76Zm-35.56,6.4-.42,1.65L40,61l-.34-.19-1.55-.86.41-1.58.08-.34.54.19,1.43.53Zm61.66,0,2-.75.08.34.4,1.62-1.55.86-.33.18-.16-.61-.42-1.64Z" transform="translate(-1.25 -2.5)"/><path class="cls-3" d="M10.09,123.92q-.12,1.91-.12,3.84a61.48,61.48,0,0,0,123,0q0-1.94-.12-3.84h6.7q.11,1.91.11,3.84a68.16,68.16,0,0,1-136.33,0q0-1.93.11-3.83Zm12.56,0q-.13,1.51-.19,3.06c-.43,14.15,6.88,25.48,11.49,30.27l-5.32,5.44a53.1,53.1,0,0,1-13.14-35.16q0-1.82.12-3.61Zm19.15,0c-.11,1-.17,1.93-.19,2.93-.27,13.83,8.68,23.48,21.25,27.67V126.71H82v5.73H70.28v7.43h11.6v6.54H70.28v9.38c8.59.45,17.74-4.53,23.31-10.71l5.74,5.81c-7.34,8.51-17.93,12.83-29.06,12.9v8.57H62.86v-9.46c-17-4.22-29.2-19.07-29-36.81q0-1.09.09-2.15Zm85.35,0q.11,1.79.12,3.62a55.32,55.32,0,0,1-12.86,35.6l-6.1-6.1c6.86-8.37,11.32-16.71,11.32-30q0-1.54-.11-3.1Z" transform="translate(-1.25 -2.5)"/><path class="cls-3" d="M3.39,123.92a68.16,68.16,0,0,1,136.11,0h-6.7a61.48,61.48,0,0,0-122.72,0Zm12.21,0a56.2,56.2,0,0,1,28-44.85L56.84,92.89a40.53,40.53,0,0,1,14.6-2.76,39.31,39.31,0,0,1,14,2.76l.46-.47L99,78.92a56.06,56.06,0,0,1,28.17,45h-7.64c-1-13.4-8.18-27.63-19.21-35.26l-7.84,8a37.77,37.77,0,0,1,9.9,10.32l-6,5.18A28.75,28.75,0,0,0,87,102.41L71.37,118.9l-16.2-16.71c-7.6,5.3-12.36,12.66-13.37,21.73H34c.84-11.2,7.09-20.41,15.94-27.09l-8-8.23C30.44,98,23.9,109.4,22.65,123.92Zm78.27-76A5.75,5.75,0,0,1,92.71,45,5.74,5.74,0,0,1,90.32,47q1.79.42,3.55.91ZM102,49.07a6.17,6.17,0,0,1-1.84.84q1.91.71,3.78,1.5a6.19,6.19,0,0,1-.77-1.87l-.2,0a3.27,3.27,0,0,1-1-.43Zm-30.5-6.73a5.74,5.74,0,0,1-1.86,2.5l1.86,0,1.86,0a5.74,5.74,0,0,1-1.86-2.5ZM39,51.41q1.87-.79,3.78-1.5a6.16,6.16,0,0,1-1.84-.84,3.3,3.3,0,0,1-1,.43l-.2,0A6.14,6.14,0,0,1,39,51.41ZM52.58,47A5.74,5.74,0,0,1,50.19,45,5.74,5.74,0,0,1,49,47.89q1.76-.49,3.55-.91Zm7.88-3.36A6.14,6.14,0,0,1,59,45.75q2-.3,4.07-.51a6.15,6.15,0,0,1-1.94-1.71,3.43,3.43,0,0,1-.68.08Zm21.95,0a3.38,3.38,0,0,1-.66-.08,6.17,6.17,0,0,1-1.94,1.71q2,.2,4.07.51a6.17,6.17,0,0,1-1.39-2l-.07-.14Zm32.52,2.88a2.65,2.65,0,1,0,1,3.6,2.65,2.65,0,0,0-1-3.6ZM94.77,37a2.65,2.65,0,1,0,1.91,3.23A2.65,2.65,0,0,0,94.77,37Zm2.41-5.21a1.48,1.48,0,1,0,1.48,1.48,1.48,1.48,0,0,0-1.48-1.48ZM96,26.53A1.48,1.48,0,1,0,97.43,28,1.48,1.48,0,0,0,96,26.53Zm18.27,13.92a1.48,1.48,0,1,0,1.47,1.47,1.48,1.48,0,0,0-1.47-1.47ZM113,35.18a1.48,1.48,0,1,0,1.48,1.48A1.48,1.48,0,0,0,113,35.18Zm-2.2-4.63A1.48,1.48,0,1,0,112.27,32a1.48,1.48,0,0,0-1.48-1.48Zm-3.5-4.12a1.48,1.48,0,1,0,1.48,1.48,1.48,1.48,0,0,0-1.48-1.48ZM103,23.3a1.48,1.48,0,1,0,1.48,1.48A1.47,1.47,0,0,0,103,23.3Zm-4.63-1.81A1.48,1.48,0,1,0,99.84,23a1.48,1.48,0,0,0-1.48-1.47Zm-4.72.39a1.48,1.48,0,1,0,1.47,1.48,1.48,1.48,0,0,0-1.47-1.48Zm-3.46-4a1.48,1.48,0,1,0,1.48,1.48,1.48,1.48,0,0,0-1.48-1.48Zm-4.53-3a1.48,1.48,0,1,0,1.48,1.48,1.47,1.47,0,0,0-1.48-1.48Zm-4.7-1.74a1.48,1.48,0,1,0,1.48,1.48,1.47,1.47,0,0,0-1.48-1.48Zm-4.82-.84a1.48,1.48,0,1,0,1.48,1.48,1.47,1.47,0,0,0-1.48-1.48ZM30.53,51.14a2.65,2.65,0,1,0-3.6-1,2.65,2.65,0,0,0,3.6,1Zm18.93-9a2.65,2.65,0,1,0-3.23-1.91,2.65,2.65,0,0,0,3.23,1.91Zm22-2.78a2.65,2.65,0,1,0-2.65-2.65,2.65,2.65,0,0,0,2.65,2.65ZM45.72,34.76a1.48,1.48,0,1,0-1.47-1.48,1.48,1.48,0,0,0,1.47,1.48Zm1.23-5.28A1.48,1.48,0,1,0,45.47,28a1.48,1.48,0,0,0,1.48,1.48ZM28.68,43.4a1.48,1.48,0,1,0-1.48-1.48,1.48,1.48,0,0,0,1.48,1.48Zm1.22-5.27a1.48,1.48,0,1,0-1.48-1.48,1.48,1.48,0,0,0,1.48,1.48Zm2.2-4.63A1.48,1.48,0,1,0,30.63,32,1.48,1.48,0,0,0,32.1,33.5Zm3.5-4.12a1.48,1.48,0,1,0-1.48-1.48,1.48,1.48,0,0,0,1.48,1.48Zm4.3-3.13a1.48,1.48,0,1,0-1.48-1.48,1.48,1.48,0,0,0,1.48,1.48Zm4.63-1.81A1.48,1.48,0,1,0,43.07,23a1.48,1.48,0,0,0,1.48,1.48Zm4.72.39a1.48,1.48,0,1,0-1.47-1.47,1.48,1.48,0,0,0,1.47,1.47Zm3.46-4a1.48,1.48,0,1,0-1.48-1.48,1.48,1.48,0,0,0,1.48,1.48Zm4.53-3a1.48,1.48,0,1,0-1.48-1.47,1.47,1.47,0,0,0,1.48,1.47ZM62,16.1a1.48,1.48,0,1,0-1.48-1.48A1.48,1.48,0,0,0,62,16.1Zm9.5,14.45A1.48,1.48,0,1,0,70,29.07a1.48,1.48,0,0,0,1.48,1.48Zm0-5.35A1.48,1.48,0,1,0,70,23.72a1.48,1.48,0,0,0,1.48,1.48Zm0-5.35A1.48,1.48,0,1,0,70,18.37a1.48,1.48,0,0,0,1.48,1.48Zm-4.68-4.59a1.48,1.48,0,1,0-1.48-1.48,1.48,1.48,0,0,0,1.48,1.48Zm40.58,36.16a3.64,3.64,0,0,0,3.38-.05c-2-1-3-1.88-2.11-4.2a3.09,3.09,0,0,1,2-2.17c-.71-9-3.23-13.37-11.44-17.47l-.6.17a2.55,2.55,0,0,1,0,.32,3,3,0,0,1-1.57,2.52c1.47.31,2.79,1,2.79,2.76A2.75,2.75,0,0,1,97.58,36a3.19,3.19,0,0,1,.43,2.1c1.68.8,2.05,1.86,1.61,3.58-.62,2.43-2.1,2.68-4.42,2.1-.34,3.79,3.82,5.24,5.86,2.53a3.31,3.31,0,0,1,.08-.66A2.69,2.69,0,0,1,106.36,47a2.81,2.81,0,0,1-.66,1.19,3.26,3.26,0,0,0,1.66,3.27Zm-38.2-33a5.43,5.43,0,0,1,.05-.59C58.46,17,50.77,24.3,49.72,34.62a2.78,2.78,0,0,1,1.75,1.75c1.86-.1,2.7.64,3.14,2.36.62,2.43-.55,3.36-2.85,4a3.3,3.3,0,0,0,3.93,2.18,3.25,3.25,0,0,0,2.44-3.16,2.76,2.76,0,0,1-.41-1.42,2.69,2.69,0,1,1,5.38,0,2.93,2.93,0,0,1-.14.86,3.26,3.26,0,0,0,3.14,2.41,3.3,3.3,0,0,0,3.27-3.09c-2.39,0-3.75-.63-3.75-3.14,0-1.77.63-2.71,2.45-3.07.42-2.22,1.54-2.35,3.39-2.66,1.85.31,3,.44,3.39,2.66,1.82.36,2.45,1.29,2.45,3.07,0,2.51-1.36,3.12-3.75,3.14a3.3,3.3,0,0,0,3.26,3.09,3.26,3.26,0,0,0,3.15-2.41,2.86,2.86,0,0,1-.14-.86,2.69,2.69,0,1,1,5.38,0,2.74,2.74,0,0,1-.41,1.42,3.26,3.26,0,0,0,2.44,3.16,3.3,3.3,0,0,0,3.93-2.18c-2.31-.61-3.48-1.54-2.85-4,.44-1.72,1.28-2.47,3.14-2.36a2.79,2.79,0,0,1,1.75-1.75C92.13,24.29,84.44,17,73.69,17.77a4.37,4.37,0,0,1,.06.59,2.33,2.33,0,0,1-.45,1.38v2.6a2.31,2.31,0,0,1,0,2.75l.06,2.68a2.28,2.28,0,0,1,.4,1.29c0,1.54-1.14,2-2.3,2.51-1.16-.51-2.3-1-2.3-2.51a2.34,2.34,0,0,1,.45-1.37V25.1a2.31,2.31,0,0,1,0-2.75v-2.6a2.34,2.34,0,0,1-.45-1.38ZM34.28,47.16c.88,2.32-.13,3.21-2.11,4.2a3.64,3.64,0,0,0,3.38.05,3.26,3.26,0,0,0,1.66-3.27A2.78,2.78,0,0,1,36.54,47a2.69,2.69,0,0,1,5.21-1.34,3.21,3.21,0,0,1,.08.66c2,2.71,6.21,1.26,5.86-2.53-2.32.58-3.79.33-4.41-2.1-.44-1.72-.07-2.78,1.61-3.58a3.22,3.22,0,0,1,.43-2.1A2.75,2.75,0,0,1,43,33.29c0-1.78,1.32-2.45,2.79-2.76A3,3,0,0,1,44.27,28c0-.11,0-.22-.6-.44C35.3,31.71,33,35.86,32.25,45a3.08,3.08,0,0,1,2,2.17Zm71,8.57a79.71,79.71,0,0,0-67.71,0A1.31,1.31,0,0,1,35.86,55c-.33-.69,0-1.21.31-1.82-2.1.65-3.65.64-5.48-.76C27.31,54.74,23.42,50,26,47.9c-1.2-1.56-1.21-3.25.54-4.37a2.93,2.93,0,0,1-.51-1.6c0-1.77,1.32-2.45,2.78-2.75a3,3,0,0,1-1.56-2.52c0-1.81,1.4-2.56,2.94-2.71A3.13,3.13,0,0,1,29.43,32a2.67,2.67,0,0,1,2.67-2.67,5.14,5.14,0,0,1,1.35.27,3.87,3.87,0,0,1-.52-1.72,2.67,2.67,0,0,1,2.67-2.67,3.62,3.62,0,0,1,1.77.57,6.82,6.82,0,0,1-.14-1,2.67,2.67,0,0,1,2.67-2.67,3.07,3.07,0,0,1,1.92.76c.3-1.4,1.08-2.57,2.71-2.57A2.8,2.8,0,0,1,47,21.87a2.84,2.84,0,0,1,2.25-1.18,5.23,5.23,0,0,1,1.19.21,3.91,3.91,0,0,1-.4-1.52,2.67,2.67,0,0,1,2.67-2.67,3.53,3.53,0,0,1,2,.78,6.88,6.88,0,0,1-.16-1.12,2.67,2.67,0,0,1,2.67-2.67,3,3,0,0,1,2,.83c.31-1.4,1.08-2.57,2.71-2.57a2.9,2.9,0,0,1,2.21,1.1,2.8,2.8,0,0,1,2.61-1.95,3.14,3.14,0,0,1,1.07.21,4.79,4.79,0,0,1,2.72-1.66V6.82H68.31V5.16h2.25v-2h1.78v2H74.6V6.82H72.34V9.66a4.79,4.79,0,0,1,2.72,1.66,3.14,3.14,0,0,1,1.07-.21,2.8,2.8,0,0,1,2.61,1.95,2.9,2.9,0,0,1,2.21-1.1c1.63,0,2.4,1.17,2.71,2.57a3,3,0,0,1,2-.82,2.67,2.67,0,0,1,2.67,2.67,7.38,7.38,0,0,1-.15,1.11,3.48,3.48,0,0,1,2-.77,2.67,2.67,0,0,1,2.67,2.67,3.9,3.9,0,0,1-.4,1.52,5.23,5.23,0,0,1,1.19-.21,2.83,2.83,0,0,1,2.25,1.18,2.81,2.81,0,0,1,2.47-1.58c1.63,0,2.41,1.17,2.71,2.57A3,3,0,0,1,103,22.1a2.67,2.67,0,0,1,2.67,2.67,7.39,7.39,0,0,1-.12,1,3.48,3.48,0,0,1,1.76-.57A2.67,2.67,0,0,1,110,27.91a3.85,3.85,0,0,1-.52,1.72,5.2,5.2,0,0,1,1.35-.27A2.67,2.67,0,0,1,113.47,32a3.15,3.15,0,0,1-.74,1.92c1.54.15,2.94.9,2.94,2.71a3,3,0,0,1-1.56,2.52c1.47.31,2.78,1,2.78,2.75a2.9,2.9,0,0,1-.52,1.6c1.76,1.11,1.75,2.8.55,4.37,1.53,1.29.74,3.29-.57,4.31a3.21,3.21,0,0,1-4.15.25c-1.83,1.41-3.38,1.41-5.48.76l.31.65a1.36,1.36,0,0,1-1.71,1.86ZM41.12,58.42l-2.19-.8-.16-.35a1.28,1.28,0,0,1-.44.13.4.4,0,0,1-.26-.75,78.59,78.59,0,0,1,66.75,0,.4.4,0,0,1-.26.75,1.39,1.39,0,0,1-.44-.13l-.16.35-2.19.8.64,2.51-.2.43c1.16.54.35,1.35-.12,1.13a72.32,72.32,0,0,0-61.3,0,.53.53,0,0,1-.48-.93,2.17,2.17,0,0,1,.36-.2l-.2-.43.64-2.52Zm12.11-1.85,4.66-3.25-5.65-.6L47.58,56l5.66.6Zm45.94,3a1.9,1.9,0,1,0-1.9-1.9,1.9,1.9,0,0,0,1.9,1.9ZM62,54.67a1.9,1.9,0,1,0-1.9-1.9,1.9,1.9,0,0,0,1.9,1.9ZM43.72,59.6a1.9,1.9,0,1,0-1.9-1.9,1.9,1.9,0,0,0,1.9,1.9Zm37.19-4.93a1.9,1.9,0,1,0-1.9-1.9,1.9,1.9,0,0,0,1.9,1.9Zm8.74,1.9,5.65-.6-4.67-3.25-5.65.6,4.67,3.25ZM77.39,52.29l-5.94-2.21-5.93,2.21,5.93,2.21,5.94-2.21ZM62.5,98.79l8.89,9.08,8.33-8.81A37.7,37.7,0,0,0,71,97.62a32.26,32.26,0,0,0-8.47,1.17Z" transform="translate(-1.25 -2.5)"/><path class="cls-4" d="M35.82,54a1.36,1.36,0,0,0,1.8,1.76q2-.93,4-1.76h2.85q-3.28,1.2-6.42,2.68a.4.4,0,0,0,.26.75,1.28,1.28,0,0,0,.44-.13l.16.35,2.19.8-.64,2.52.2.43a2.17,2.17,0,0,0-.36.2.53.53,0,0,0,.48.93,72.32,72.32,0,0,1,61.3,0c.47.22,1.28-.59.12-1.13l.2-.43-.64-2.51,2.19-.8.16-.35a1.39,1.39,0,0,0,.44.13.4.4,0,0,0,.26-.75q-3.14-1.48-6.42-2.68h2.89q2,.84,4,1.77A1.36,1.36,0,0,0,107.08,54h3.77a5.8,5.8,0,0,1-3.06.22,2,2,0,0,1-2.27,2.27,1.1,1.1,0,0,1-.79,1.62l.5,2-2,1.14a1.17,1.17,0,0,1,.15,1.22,1.12,1.12,0,0,1-1.5.59,71.69,71.69,0,0,0-60.76,0,1.13,1.13,0,0,1-1.5-.59,1.17,1.17,0,0,1,.15-1.22l-2-1.14.5-2a1.11,1.11,0,0,1-.79-1.62,2,2,0,0,1-2.09-1.14,2,2,0,0,1-.17-1.13A5.73,5.73,0,0,1,32.05,54ZM57,54l-3.74,2.61L47.58,56l2.89-2Zm4.14,0a1.43,1.43,0,0,0,.86.28,1.47,1.47,0,0,0,.86-.28h.62a1.9,1.9,0,0,1-3,0Zm10.09,0,.24.09.24-.09H72.9l-1.45.54L70,54Zm8.85,0a1.43,1.43,0,0,0,.86.28,1.48,1.48,0,0,0,.86-.28h.62a1.9,1.9,0,0,1-3,0Zm12.37,0,2.89,2-5.65.6L85.92,54Zm49.22,73.8a70.2,70.2,0,1,1-70.2-70.27,70.34,70.34,0,0,1,70.2,70.27Zm-2,0a68.16,68.16,0,1,0-68.16,68.16,68.32,68.32,0,0,0,68.16-68.16ZM12,127.76A59.44,59.44,0,1,0,71.45,68.32,59.61,59.61,0,0,0,12,127.76Zm-2,0a61.48,61.48,0,1,1,61.48,61.48A61.6,61.6,0,0,1,10,127.76Zm68.67-13.58,33.26,34.31c3.78-6.24,5.69-12.65,5.69-21.47,0-15.42-8.66-29.47-17-35.69l-5,5.14a38.57,38.57,0,0,1,9.47,11l-9.24,8a26.56,26.56,0,0,0-8.49-10.33l-8.61,9.1Zm42.15,43.47a56.94,56.94,0,0,1-26,23l-5.39-5.51L79.38,164.91a39.08,39.08,0,0,1-7.06.88v8.6H60.82v-9.92a39.59,39.59,0,0,1-29-38.42A35.46,35.46,0,0,1,33,117.54l-5.67-5.75a50.22,50.22,0,0,0-2.83,15.27,41.48,41.48,0,0,0,12.34,30.17l-8.29,8.47c-9.75-11-15.1-23.31-15.1-38.15,0-21.67,11.88-40.58,30.55-51l13.39,14a42.6,42.6,0,0,1,14.07-2.42A41.08,41.08,0,0,1,85,90.52L98.61,76.38c18.83,10.45,30.7,29.36,30.7,51.16a56.26,56.26,0,0,1-8.52,30.11ZM60.82,146l-17.17-17.5c.4,9.82,6.39,19.05,17.17,23.2V146ZM85.91,92.41l-.46.47a39.31,39.31,0,0,0-14-2.76,40.53,40.53,0,0,0-14.6,2.76L43.62,79.07a56.12,56.12,0,0,0-28.14,48.47A53.1,53.1,0,0,0,28.62,162.7l5.32-5.44C29.34,152.47,22,141.14,22.46,127,23,111,29.64,98.7,42,88.61l8,8.23c-9.42,7.1-15.88,17.06-16,29.24-.23,17.74,12,32.59,29,36.81v9.46h7.42v-8.57c11.13-.07,21.72-4.39,29.06-12.9l-5.74-5.81c-5.58,6.18-14.72,11.15-23.31,10.71V146.4h11.6v-6.54H70.28v-7.43H82v-5.73H62.86v27.82c-12.57-4.19-21.53-13.84-21.25-27.67.23-10.42,5.16-18.8,13.56-24.67l16.2,16.71L87,102.41a28.75,28.75,0,0,1,9.38,9.78l6-5.18a37.77,37.77,0,0,0-9.9-10.32l7.84-8c11.89,8.22,19.33,24.11,19.33,38.36,0,13.31-4.46,21.64-11.32,30l6.1,6.1a55.32,55.32,0,0,0,12.86-35.6A56,56,0,0,0,99,78.92L85.91,92.41ZM62.5,98.79A32.26,32.26,0,0,1,71,97.62a37.7,37.7,0,0,1,8.75,1.44l-8.33,8.81L62.5,98.79ZM66.55,100l4.81,4.92,4.48-4.74a30.78,30.78,0,0,0-5-.54,22.61,22.61,0,0,0-4.35.36Zm35.73-41.33.42,1.64.16.61.33-.18,1.55-.86-.4-1.62-.08-.34-2,.75Zm-61.66,0-1.43-.53L38.65,58l-.08.34-.41,1.58,1.55.86L40,61l.15-.63.42-1.65Zm3.11.49a1.48,1.48,0,1,0-1.48-1.48,1.48,1.48,0,0,0,1.48,1.48Zm0,.42a1.9,1.9,0,1,1,1.9-1.9,1.9,1.9,0,0,1-1.9,1.9Zm55.45-.42A1.48,1.48,0,1,0,97.7,57.7a1.47,1.47,0,0,0,1.47,1.48Zm0,.42a1.9,1.9,0,1,1,1.9-1.9,1.9,1.9,0,0,1-1.9,1.9Z" transform="translate(-1.25 -2.5)"/><path class="cls-4" d="M27.57,38a4.82,4.82,0,0,0,1.21,1.21c-1.46.31-2.78,1-2.78,2.75a2.93,2.93,0,0,0,.51,1.6c-1.76,1.11-1.74,2.81-.54,4.37-2.55,2.14,1.34,6.84,4.72,4.56,1.83,1.41,3.38,1.41,5.48.76-.12.26-.25.5-.34.74H32.05a6,6,0,0,1-1.39-.73c-3.61,2.17-7.86-3-5.54-5.42a3.28,3.28,0,0,1,.56-4.48,3.31,3.31,0,0,1,1.76-4.47,3.31,3.31,0,0,1-.58-.91Zm1.64,0a1.48,1.48,0,0,0,1.38,0h.7a1.9,1.9,0,0,1-2.77,0Zm4.95,0a27.18,27.18,0,0,0-1.24,6.59,4,4,0,0,1,2,2.39c.58,1.53.58,3.09-1.05,4.24a2.62,2.62,0,0,0,2.78-2.77,3.27,3.27,0,0,1-.67-1.3,3.32,3.32,0,0,1,6.43-1.65,3.39,3.39,0,0,1,.09.58,2.62,2.62,0,0,0,4.65-1.51c-2.78.55-4-.85-4.44-2.73A3.29,3.29,0,0,1,43.78,38h1.11v.1c-1.68.8-2,1.87-1.61,3.58.62,2.43,2.1,2.68,4.41,2.1.35,3.79-3.82,5.24-5.86,2.53a3.21,3.21,0,0,0-.08-.66A2.69,2.69,0,0,0,36.54,47a2.78,2.78,0,0,0,.67,1.19,3.26,3.26,0,0,1-1.66,3.27,3.64,3.64,0,0,1-3.38-.05c2-1,3-1.88,2.11-4.2a3.08,3.08,0,0,0-2-2.17,31.67,31.67,0,0,1,1.2-7ZM46.7,38a2.65,2.65,0,1,0,4.18,0h.52a3,3,0,0,1,.37.87A3.08,3.08,0,1,1,46.18,38ZM55,38a6.3,6.3,0,0,1,.19.61c.48,1.88.14,3.68-2.57,4.53a2.62,2.62,0,0,0,4.84-1.24A3.31,3.31,0,0,1,58,38h1a2.69,2.69,0,0,0-1.35,2.34,2.76,2.76,0,0,0,.41,1.42,3.25,3.25,0,0,1-2.44,3.16,3.3,3.3,0,0,1-3.93-2.18c2.31-.61,3.48-1.54,2.85-4a5.62,5.62,0,0,0-.25-.77Zm7.74,0a3.33,3.33,0,0,1,1,2.34,3.28,3.28,0,0,1-.11.85,2.62,2.62,0,0,0,5-.06C66.07,40.95,65.17,39.62,65,38h.63c.22,2,1.54,2.5,3.72,2.51a3.3,3.3,0,0,1-3.27,3.09A3.26,3.26,0,0,1,63,41.15a2.93,2.93,0,0,0,.14-.86A2.69,2.69,0,0,0,61.74,38Zm6.33,0a2.65,2.65,0,0,0,4.7,0h.47a3.08,3.08,0,0,1-5.63,0Zm8.79,0c-.17,1.66-1.06,3-3.59,3.13a2.62,2.62,0,0,0,5,.06,3.21,3.21,0,0,1-.12-.85,3.31,3.31,0,0,1,1-2.33h1a2.69,2.69,0,0,0-1.35,2.34,2.86,2.86,0,0,0,.14.86,3.26,3.26,0,0,1-3.15,2.41,3.3,3.3,0,0,1-3.26-3.09c2.18,0,3.5-.53,3.72-2.52Zm7,0a3.33,3.33,0,0,1,1,2.34,3.29,3.29,0,0,1-.4,1.58,2.62,2.62,0,0,0,4.84,1.23c-2.71-.86-3.05-2.65-2.57-4.53a6.4,6.4,0,0,1,.19-.61h.67a5.58,5.58,0,0,0-.25.77c-.62,2.43.55,3.36,2.85,4a3.3,3.3,0,0,1-3.93,2.18,3.26,3.26,0,0,1-2.44-3.16,2.74,2.74,0,0,0,.41-1.42A2.69,2.69,0,0,0,83.83,38ZM92,38a2.59,2.59,0,0,0-.48,1,2.65,2.65,0,1,0,4.66-1h.52a3.07,3.07,0,1,1-5.22,0Zm7.11,0a3.29,3.29,0,0,1,1.1,3.84c-.48,1.88-1.65,3.29-4.44,2.73A2.62,2.62,0,0,0,100.44,46a3.51,3.51,0,0,1,.09-.58,3.32,3.32,0,1,1,5.77,2.95,2.63,2.63,0,0,0,2.78,2.77c-1.64-1.15-1.63-2.71-1.05-4.24A4,4,0,0,1,110,44.55,27.15,27.15,0,0,0,108.74,38h.66a30.43,30.43,0,0,1,1.24,7,3.09,3.09,0,0,0-2,2.17c-.88,2.32.13,3.21,2.11,4.2a3.64,3.64,0,0,1-3.38.05,3.26,3.26,0,0,1-1.66-3.27,2.81,2.81,0,0,0,.66-1.19,2.69,2.69,0,0,0-5.21-1.34,3.31,3.31,0,0,0-.08.66c-2,2.71-6.2,1.26-5.86-2.53,2.32.58,3.79.33,4.42-2.1.44-1.72.06-2.78-1.61-3.58V38Zm13.19,0a1.47,1.47,0,0,0,1.38,0h.7a1.9,1.9,0,0,1-2.77,0ZM116,38a3.33,3.33,0,0,1-.58.9,3.3,3.3,0,0,1,2.07,3.07,3.27,3.27,0,0,1-.31,1.4,3.28,3.28,0,0,1,.57,4.48c1.47,1.53.2,3.94-1,4.9a3.87,3.87,0,0,1-4.51.52,5.74,5.74,0,0,1-1.39.72h-3.77l0-.09-.31-.65c2.1.65,3.65.64,5.48-.76a3.21,3.21,0,0,0,4.15-.25c1.31-1,2.1-3,.57-4.31,1.2-1.57,1.21-3.26-.55-4.37a2.9,2.9,0,0,0,.52-1.6c0-1.77-1.32-2.45-2.78-2.75A4.86,4.86,0,0,0,115.33,38ZM41.64,54a79.79,79.79,0,0,1,59.66,0H98.41a78.77,78.77,0,0,0-53.91,0Zm8.83,0,1.78-1.24,5.65.6L57,54Zm10,0a1.9,1.9,0,1,1,3,0h-.62a1.46,1.46,0,0,0,.62-1.19A1.48,1.48,0,1,0,61.12,54ZM70,54l-4.48-1.67,5.93-2.21,5.94,2.21L72.9,54H71.69l4.48-1.67-4.73-1.76-4.72,1.76L71.21,54Zm9.44,0a1.9,1.9,0,1,1,3,0h-.62a1.46,1.46,0,0,0,.62-1.19A1.48,1.48,0,1,0,80.06,54Zm6.48,0L85,53.32l5.65-.6L92.43,54Zm15.85-5.53.19-.14a3,3,0,0,0,1.13.59,5.15,5.15,0,0,0,.58.09,5.65,5.65,0,0,0,1.44,3l-.36.5q-2.93-1.3-6-2.37l.08-.61a5.59,5.59,0,0,0,2.91-1Zm.19.64a6.17,6.17,0,0,1-1.84.84q1.91.71,3.78,1.5a6.19,6.19,0,0,1-.77-1.87l-.2,0a3.27,3.27,0,0,1-1-.43ZM71.14,41h.62a5.1,5.1,0,0,0,2.85,3.87l-.15.6q-1.5-.06-3-.06t-3,.06l-.15-.6A5.1,5.1,0,0,0,71.14,41Zm.31,1.3a5.74,5.74,0,0,1-1.86,2.5l1.86,0,1.86,0a5.74,5.74,0,0,1-1.86-2.5ZM38.15,52.47,37.8,52a5.63,5.63,0,0,0,1.44-3,2.88,2.88,0,0,0,1.71-.68A5.64,5.64,0,0,0,44,49.48l.08.61q-3,1.07-6,2.37ZM39,51.41q1.87-.79,3.78-1.5a6.16,6.16,0,0,1-1.84-.84,3.3,3.3,0,0,1-1,.43l-.2,0A6.14,6.14,0,0,1,39,51.41Zm14.84-4.69v.62q-2.91.63-5.75,1.47l-.29-.54a5.1,5.1,0,0,0,1.75-4.42l.6-.16a5.1,5.1,0,0,0,3.68,3ZM52.58,47A5.74,5.74,0,0,1,50.19,45,5.74,5.74,0,0,1,49,47.89q1.76-.49,3.55-.91Zm5.35-.42L57.71,46A5.6,5.6,0,0,0,60,43l.38,0a3.31,3.31,0,0,0,1-.18,5.61,5.61,0,0,0,3,2.34l-.07.61q-3.25.28-6.42.8Zm2.54-2.94A6.14,6.14,0,0,1,59,45.75q2-.3,4.07-.51a6.15,6.15,0,0,1-1.94-1.71,3.43,3.43,0,0,1-.68.08Zm18.08,2.14-.07-.61a5.63,5.63,0,0,0,3-2.34,3.27,3.27,0,0,0,1,.18l.38,0a5.61,5.61,0,0,0,2.33,3l-.22.58q-3.17-.52-6.43-.8Zm3.87-2.14a3.38,3.38,0,0,1-.66-.08,6.17,6.17,0,0,1-1.94,1.71q2,.2,4.07.51a6.17,6.17,0,0,1-1.39-2l-.07-.14Zm12.67,4.66-.3.54Q92,48,89,47.34v-.62a5.1,5.1,0,0,0,3.68-3l.6.15a5.11,5.11,0,0,0,1.76,4.42Zm-1.23-.38A5.75,5.75,0,0,1,92.71,45,5.74,5.74,0,0,1,90.32,47q1.79.42,3.55.91Zm20.36-7.43a1.48,1.48,0,1,0,1.47,1.47,1.48,1.48,0,0,0-1.47-1.47Zm0-.42a1.9,1.9,0,1,1-1.9,1.9,1.9,1.9,0,0,1,1.9-1.9ZM30.53,51.14a2.65,2.65,0,1,0-3.6-1,2.65,2.65,0,0,0,3.6,1Zm.2.37a3.08,3.08,0,1,1,1.21-4.18,3.08,3.08,0,0,1-1.21,4.18Zm-2.05-8.1a1.48,1.48,0,1,0-1.48-1.48,1.48,1.48,0,0,0,1.48,1.48Zm0,.42a1.9,1.9,0,1,1,1.9-1.9,1.9,1.9,0,0,1-1.9,1.9Zm86.25,2.66a2.65,2.65,0,1,0,1,3.6,2.65,2.65,0,0,0-1-3.6Zm.2-.37A3.08,3.08,0,1,1,111,47.33a3.07,3.07,0,0,1,4.18-1.21Z" transform="translate(-1.25 -2.5)"/><path class="cls-4" d="M26.86,38a3.31,3.31,0,0,1,2.26-4.52,3.3,3.3,0,0,1,3-4.72h.31a3.3,3.3,0,0,1,4.2-4,3.3,3.3,0,0,1,4.83-2.91,3.3,3.3,0,0,1,5.66-1,3.28,3.28,0,0,1,2.17-.82h.23a3.23,3.23,0,0,1-.07-.69,3.3,3.3,0,0,1,4.53-3.07,3.3,3.3,0,0,1,4.9-2.83A3.31,3.31,0,0,1,64,12a3.29,3.29,0,0,1,3.66-1.42,5.27,5.27,0,0,1,1.95-1.3l.34-.12V7.45H67.67V4.53h2.25v-2h3v2h2.26V7.45H73V9.18l.34.12a5.27,5.27,0,0,1,1.95,1.3A3.29,3.29,0,0,1,78.92,12,3.31,3.31,0,0,1,84,13.48,3.3,3.3,0,0,1,89,16.31a3.3,3.3,0,0,1,4.46,3.76h.23a3.28,3.28,0,0,1,2.17.82,3.3,3.3,0,0,1,5.66,1,3.3,3.3,0,0,1,4.83,2.91,3.3,3.3,0,0,1,4.2,4h.31a3.31,3.31,0,0,1,3,4.72A3.3,3.3,0,0,1,116,38h-.71a2.4,2.4,0,0,0,.35-1.31c0-1.81-1.4-2.56-2.94-2.71a3.15,3.15,0,0,0,.74-1.92,2.67,2.67,0,0,0-2.67-2.67,5.2,5.2,0,0,0-1.35.27,3.85,3.85,0,0,0,.52-1.72,2.67,2.67,0,0,0-2.67-2.67,3.48,3.48,0,0,0-1.76.57,7.39,7.39,0,0,0,.12-1A2.67,2.67,0,0,0,103,22.1a3,3,0,0,0-1.91.76c-.31-1.4-1.09-2.57-2.71-2.57a2.81,2.81,0,0,0-2.47,1.58,2.83,2.83,0,0,0-2.25-1.18,5.23,5.23,0,0,0-1.19.21,3.9,3.9,0,0,0,.4-1.52,2.67,2.67,0,0,0-2.67-2.67,3.48,3.48,0,0,0-2,.77,7.38,7.38,0,0,0,.15-1.11,2.67,2.67,0,0,0-2.67-2.67,3,3,0,0,0-2,.82c-.31-1.4-1.08-2.57-2.71-2.57a2.9,2.9,0,0,0-2.21,1.1,2.8,2.8,0,0,0-2.61-1.95,3.14,3.14,0,0,0-1.07.21,4.79,4.79,0,0,0-2.72-1.66V6.82H74.6V5.16H72.34v-2H70.56v2H68.31V6.82h2.25V9.66a4.79,4.79,0,0,0-2.72,1.66,3.14,3.14,0,0,0-1.07-.21,2.8,2.8,0,0,0-2.61,1.95A2.9,2.9,0,0,0,62,11.95c-1.63,0-2.4,1.17-2.71,2.57a3,3,0,0,0-2-.83,2.67,2.67,0,0,0-2.67,2.67,6.88,6.88,0,0,0,.16,1.12,3.53,3.53,0,0,0-2-.78A2.67,2.67,0,0,0,50,19.38a3.91,3.91,0,0,0,.4,1.52,5.23,5.23,0,0,0-1.19-.21A2.84,2.84,0,0,0,47,21.87a2.8,2.8,0,0,0-2.47-1.58c-1.63,0-2.41,1.16-2.71,2.57a3.07,3.07,0,0,0-1.92-.76,2.67,2.67,0,0,0-2.67,2.67,6.82,6.82,0,0,0,.14,1,3.62,3.62,0,0,0-1.77-.57,2.67,2.67,0,0,0-2.67,2.67,3.87,3.87,0,0,0,.52,1.72,5.14,5.14,0,0,0-1.35-.27A2.67,2.67,0,0,0,29.43,32a3.13,3.13,0,0,0,.74,1.92c-1.54.15-2.94.9-2.94,2.71A2.42,2.42,0,0,0,27.57,38Zm1.65,0a1.9,1.9,0,1,1,2.77,0h-.7a1.48,1.48,0,1,0-1.38,0Zm4.94,0c1.45-4.6,4.33-7.51,10.11-10.43.71.26.7.37.7.48a3,3,0,0,0,1.57,2.52c-1.47.31-2.79,1-2.79,2.76A2.75,2.75,0,0,0,45.32,36a3.17,3.17,0,0,0-.43,2H43.78a4.62,4.62,0,0,1,.47-.29,3.64,3.64,0,0,1,.2-1.34,3.31,3.31,0,0,1-2-2.4,34.38,34.38,0,0,0-4.83,1.4,11.27,11.27,0,0,0-3.24,2q-.13.33-.24.67Zm12.72,0a3.08,3.08,0,0,1,5.22,0h-.52a2.65,2.65,0,0,0-4.18,0Zm8.17,0a2.54,2.54,0,0,0-2.89-1.59,2.78,2.78,0,0,0-1.75-1.75C50.77,24.3,58.46,17,69.2,17.77a5.43,5.43,0,0,0-.05.59,2.34,2.34,0,0,0,.45,1.38v2.6a2.31,2.31,0,0,0,0,2.75v2.6a2.34,2.34,0,0,0-.45,1.37c0,1.54,1.14,2,2.3,2.51,1.16-.51,2.3-1,2.3-2.51a2.28,2.28,0,0,0-.4-1.29l-.06-2.68a2.31,2.31,0,0,0,0-2.75v-2.6a2.33,2.33,0,0,0,.45-1.38,4.37,4.37,0,0,0-.06-.59c10.75-.79,18.44,6.52,19.5,16.85a2.79,2.79,0,0,0-1.75,1.75A2.54,2.54,0,0,0,88.55,38h-.67A3.09,3.09,0,0,1,91,35.72a3.28,3.28,0,0,1,1.46-1.5,19.77,19.77,0,0,0-1-4.44c-5.28-2.93-12.19-3.45-17.55-2.66v.39a2.93,2.93,0,0,1-.62,3.83,3.09,3.09,0,0,1,2.07,2.4c2,.48,2.54,2,2.54,3.6,0,.21,0,.42,0,.63h-.63a5.85,5.85,0,0,0,0-.62c0-1.77-.63-2.71-2.45-3.07-.42-2.22-1.54-2.35-3.39-2.66-1.85.31-3,.44-3.39,2.66-1.82.36-2.45,1.29-2.45,3.07a5.74,5.74,0,0,0,0,.62H65a6.16,6.16,0,0,1,0-.62c0-1.63.55-3.12,2.55-3.6a3.09,3.09,0,0,1,2.07-2.4A2.93,2.93,0,0,1,69,27.51v-.39c-5.36-.79-12.27-.27-17.55,2.66a19.78,19.78,0,0,0-1,4.44,3.26,3.26,0,0,1,1.46,1.5A3.09,3.09,0,0,1,55,38ZM58,38a3.33,3.33,0,0,1,4.73,0h-1a2.7,2.7,0,0,0-2.67,0Zm10.59,0a3.07,3.07,0,1,1,5.63,0H73.8a2.69,2.69,0,0,0,.3-1.23,2.65,2.65,0,1,0-5,1.23Zm11.5,0a3.33,3.33,0,0,1,4.73,0h-1a2.69,2.69,0,0,0-2.67,0ZM91.5,38a3.07,3.07,0,0,1,5.22,0H96.2A2.66,2.66,0,0,0,92,38ZM98,38a3.13,3.13,0,0,0-.43-2,2.75,2.75,0,0,0,2.28-2.67c0-1.78-1.33-2.45-2.79-2.76A3,3,0,0,0,98.63,28a2.55,2.55,0,0,0,0-.32l.6-.17c5.73,2.86,8.69,5.83,10.2,10.44h-.66q-.12-.34-.25-.68a11.28,11.28,0,0,0-3.24-2,34.41,34.41,0,0,0-4.83-1.39,3.31,3.31,0,0,1-2,2.4,3.62,3.62,0,0,1,.2,1.34,4.3,4.3,0,0,1,.47.29Zm13.61,0a1.9,1.9,0,1,1,2.77,0h-.7a1.47,1.47,0,1,0-1.38,0ZM91.25,29.18A16.67,16.67,0,0,0,74.38,18.37a2.92,2.92,0,0,1-.45,1.57v2.22a2.93,2.93,0,0,1,0,3.13v1.41c5.63-.79,12.19-.2,17.33,2.48ZM68.52,18.37A16.67,16.67,0,0,0,51.65,29.18c5.13-2.66,11.72-3.31,17.33-2.49v-1.4a2.93,2.93,0,0,1,0-3.13V19.93a2.93,2.93,0,0,1-.45-1.57ZM97.18,31.81a1.48,1.48,0,1,0,1.48,1.48,1.48,1.48,0,0,0-1.48-1.48Zm0-.42a1.9,1.9,0,1,1-1.9,1.9,1.9,1.9,0,0,1,1.9-1.9ZM96,26.53A1.48,1.48,0,1,0,97.43,28,1.48,1.48,0,0,0,96,26.53Zm0-.42a1.9,1.9,0,1,1-1.9,1.9,1.9,1.9,0,0,1,1.9-1.9Zm14.84,4.44A1.48,1.48,0,1,0,112.27,32a1.48,1.48,0,0,0-1.48-1.48Zm0-.42a1.9,1.9,0,1,1-1.9,1.9,1.9,1.9,0,0,1,1.9-1.9Zm-3.5-3.69a1.48,1.48,0,1,0,1.48,1.48,1.48,1.48,0,0,0-1.48-1.48Zm0-.42a1.9,1.9,0,1,1-1.9,1.9,1.9,1.9,0,0,1,1.9-1.9ZM103,23.3a1.48,1.48,0,1,0,1.48,1.48A1.47,1.47,0,0,0,103,23.3Zm0-.42a1.9,1.9,0,1,1-1.9,1.9,1.9,1.9,0,0,1,1.9-1.9Zm-4.63-1.39A1.48,1.48,0,1,0,99.84,23a1.48,1.48,0,0,0-1.48-1.47Zm0-.42a1.9,1.9,0,1,1-1.9,1.9,1.9,1.9,0,0,1,1.9-1.9Zm-4.72.82a1.48,1.48,0,1,0,1.47,1.48,1.48,1.48,0,0,0-1.47-1.48Zm0-.42a1.9,1.9,0,1,1-1.9,1.9,1.9,1.9,0,0,1,1.9-1.9ZM90.18,17.9a1.48,1.48,0,1,0,1.48,1.48,1.48,1.48,0,0,0-1.48-1.48Zm0-.42a1.9,1.9,0,1,1-1.9,1.9,1.9,1.9,0,0,1,1.9-1.9Zm-4.53-2.59a1.48,1.48,0,1,0,1.48,1.48,1.47,1.47,0,0,0-1.48-1.48Zm0-.42a1.9,1.9,0,1,1-1.9,1.9,1.9,1.9,0,0,1,1.9-1.9Zm-4.7-1.32a1.48,1.48,0,1,0,1.48,1.48,1.47,1.47,0,0,0-1.48-1.48Zm0-.42a1.9,1.9,0,1,1-1.9,1.9,1.9,1.9,0,0,1,1.9-1.9Zm-4.82-.42a1.48,1.48,0,1,0,1.48,1.48,1.47,1.47,0,0,0-1.48-1.48Zm0-.42a1.9,1.9,0,1,1-1.9,1.9,1.9,1.9,0,0,1,1.9-1.9ZM45.72,34.76a1.48,1.48,0,1,0-1.47-1.48,1.48,1.48,0,0,0,1.47,1.48Zm0,.42a1.9,1.9,0,1,1,1.9-1.9,1.9,1.9,0,0,1-1.9,1.9Zm1.23-5.7A1.48,1.48,0,1,0,45.47,28a1.48,1.48,0,0,0,1.48,1.48Zm0,.42a1.9,1.9,0,1,1,1.9-1.9,1.9,1.9,0,0,1-1.9,1.9ZM32.1,33.5A1.48,1.48,0,1,0,30.63,32,1.48,1.48,0,0,0,32.1,33.5Zm0,.42A1.9,1.9,0,1,1,34,32a1.9,1.9,0,0,1-1.9,1.9Zm3.5-4.54a1.48,1.48,0,1,0-1.48-1.48,1.48,1.48,0,0,0,1.48,1.48Zm0,.42a1.9,1.9,0,1,1,1.9-1.9,1.9,1.9,0,0,1-1.9,1.9Zm4.3-3.55a1.48,1.48,0,1,0-1.48-1.48,1.48,1.48,0,0,0,1.48,1.48Zm0,.42a1.9,1.9,0,1,1,1.9-1.9,1.9,1.9,0,0,1-1.9,1.9Zm4.63-2.23A1.48,1.48,0,1,0,43.07,23a1.48,1.48,0,0,0,1.48,1.48Zm0,.42a1.9,1.9,0,1,1,1.9-1.9,1.9,1.9,0,0,1-1.9,1.9Zm4.72,0a1.48,1.48,0,1,0-1.47-1.47,1.48,1.48,0,0,0,1.47,1.47Zm0,.42a1.9,1.9,0,1,1,1.9-1.9,1.9,1.9,0,0,1-1.9,1.9Zm3.46-4.41a1.48,1.48,0,1,0-1.48-1.48,1.48,1.48,0,0,0,1.48,1.48Zm0,.42a1.9,1.9,0,1,1,1.9-1.9,1.9,1.9,0,0,1-1.9,1.9Zm4.53-3.44a1.48,1.48,0,1,0-1.48-1.47,1.47,1.47,0,0,0,1.48,1.47Zm0,.42a1.9,1.9,0,1,1,1.9-1.9,1.9,1.9,0,0,1-1.9,1.9ZM62,16.1a1.48,1.48,0,1,0-1.48-1.48A1.48,1.48,0,0,0,62,16.1Zm0,.42a1.9,1.9,0,1,1,1.9-1.9,1.9,1.9,0,0,1-1.9,1.9Zm9.5,14A1.48,1.48,0,1,0,70,29.07a1.48,1.48,0,0,0,1.48,1.48Zm0,.42a1.9,1.9,0,1,1,1.9-1.9,1.9,1.9,0,0,1-1.9,1.9Zm0-5.78A1.48,1.48,0,1,0,70,23.72a1.48,1.48,0,0,0,1.48,1.48Zm0,.42a1.9,1.9,0,1,1,1.9-1.9,1.9,1.9,0,0,1-1.9,1.9Zm0-5.78A1.48,1.48,0,1,0,70,18.37a1.48,1.48,0,0,0,1.48,1.48Zm0,.42a1.9,1.9,0,1,1,1.9-1.9,1.9,1.9,0,0,1-1.9,1.9Zm-4.68-5a1.48,1.48,0,1,0-1.48-1.48,1.48,1.48,0,0,0,1.48,1.48Zm0,.42a1.9,1.9,0,1,1,1.9-1.9,1.9,1.9,0,0,1-1.9,1.9ZM43.65,28.2c-4.61,2.4-7.32,4.85-8.89,8.26a11.6,11.6,0,0,1,2.74-1.53,34.92,34.92,0,0,1,4.93-1.42v-.23a3.3,3.3,0,0,1,2.08-3.07,3.28,3.28,0,0,1-.85-2Zm55.61-.09a3.28,3.28,0,0,1-.85,2.11,3.3,3.3,0,0,1,2.08,3.07v.23a34.11,34.11,0,0,1,4.93,1.42,11.69,11.69,0,0,1,2.73,1.52c-1.57-3.39-4.27-5.87-8.88-8.34Z" transform="translate(-1.25 -2.5)"/></svg>