<svg id="Camada_1" data-name="Camada 1" xmlns="http://www.w3.org/2000/svg" viewBox="0 0 86.3 84.17"><defs><style>.cls-1{fill:#ffffff;fill-rule:evenodd;}</style></defs><title>emblem-uefa</title><path class="cls-1" d="M43.81,23.55c4.32,1.19,7.54,1.75,7.54,1.75a66.42,66.42,0,0,1-4.95-5.57c2.51-3.55,4.48-6,4.48-6-2.66.59-5.18,1.31-7.43,2.05-2.14-3.07-3.32-5.24-3.32-5.24a31.69,31.69,0,0,0-1,6.79c-3.58,1.39-5.81,2.52-5.81,2.52,1.93.87,3.94,1.63,5.89,2.29a38.14,38.14,0,0,0,1.16,7.07c1.08-1.94,2.28-3.86,3.46-5.66Z" transform="translate(-0.67 -1.33)"/><path class="cls-1" d="M63.54,22.46a5.58,5.58,0,0,1-2.54,2,51.55,51.55,0,0,0-.6-5.56,66.83,66.83,0,0,1-2.77,6.44,25.9,25.9,0,0,1-6.28-.06,25.64,25.64,0,0,0,4.1,4.08,38.88,38.88,0,0,1-2.77,4.15,15.06,15.06,0,0,0,5.44-2.37,5.42,5.42,0,0,1,1.57,1.6,9.74,9.74,0,0,0,1.23-4.3,13.34,13.34,0,0,0,2.6-6Z" transform="translate(-0.67 -1.33)"/><path class="cls-1" d="M62.5,14.28A14.15,14.15,0,0,0,58.45,9a13.1,13.1,0,0,0-2.91-4.16A4.39,4.39,0,0,1,55.33,7a19.43,19.43,0,0,0-6.44-1.9,27.54,27.54,0,0,1,5.19,4.51,28,28,0,0,1-3.18,4.12,30.63,30.63,0,0,1,5.87-.81,40.51,40.51,0,0,1,3.64,6,24.3,24.3,0,0,0-.54-5.79,4.73,4.73,0,0,1,2.64,1.13Z" transform="translate(-0.67 -1.33)"/><path class="cls-1" d="M48.88,5.1a24.72,24.72,0,0,0-4.65-1.79,9.45,9.45,0,0,1,3.58-2,19.07,19.07,0,0,0-7.67,1.24,16.74,16.74,0,0,0-5.23.3,5.48,5.48,0,0,1,1.3,1.78,17.45,17.45,0,0,0-4.07,3.78,28.16,28.16,0,0,1,5.06-1.89c.19.34.38.68.59,1a19.35,19.35,0,0,0,2.37,3,13.72,13.72,0,0,1,2.08-5,43.35,43.35,0,0,1,6.66-.44Z" transform="translate(-0.67 -1.33)"/><path class="cls-1" d="M28.36,11.59a35.4,35.4,0,0,1,3.76-3.14,13,13,0,0,0-2.85.37,15.44,15.44,0,0,1,2-3.65A19.83,19.83,0,0,0,24,17.44a14,14,0,0,1,2.28-3.58,12.38,12.38,0,0,0,1.5,2.55,20.29,20.29,0,0,1,.61-4.83Z" transform="translate(-0.67 -1.33)"/><path class="cls-1" d="M33.31,19.86a34.81,34.81,0,0,0-5.13.49,35.2,35.2,0,0,1-.42-3.94A17.25,17.25,0,0,0,25.59,21a4.12,4.12,0,0,0-1.87,1.09A6.76,6.76,0,0,0,25,24.41a12.5,12.5,0,0,0,.93,5.7,12,12,0,0,1,1.37-3.47,25.81,25.81,0,0,0,3.64,2.42A22.55,22.55,0,0,1,29,24.17a28.26,28.26,0,0,1,4.31-4.31Z" transform="translate(-0.67 -1.33)"/><path class="cls-1" d="M43.9,37.39a40.45,40.45,0,0,1-4.37-2.17,45.59,45.59,0,0,1,.82-6,27.24,27.24,0,0,1-4.69,3.59,44.2,44.2,0,0,1-4.72-3.74,30,30,0,0,0,2.23,5,7.14,7.14,0,0,1-4.15.44s1.55,1.94,6.35,2.76a9.48,9.48,0,0,0,4.84,3.33s-.57-.62-.7-3a40.34,40.34,0,0,0,4.38-.2Z" transform="translate(-0.67 -1.33)"/><path class="cls-1" d="M52.59,37.2a10.65,10.65,0,0,0,.1-3.66,24.35,24.35,0,0,1-3.51,4.08,27.57,27.57,0,0,1-5.28-.22,12.78,12.78,0,0,0,2.85,2.09,8.5,8.5,0,0,1-3.37,1.36,19.75,19.75,0,0,0,14.13-5.58,14.09,14.09,0,0,1-4.92,1.93Z" transform="translate(-0.67 -1.33)"/><path class="cls-1" d="M34.14,60.68a12.18,12.18,0,0,1,18.54.22l.59-.55a13,13,0,0,0-19.68-.22l.56.55Z" transform="translate(-0.67 -1.33)"/><polygon class="cls-1" points="41.61 52.89 38.04 53.63 37.15 49.31 40.66 48.59 40.83 49.38 38.52 49.86 38.7 50.76 40.91 50.3 41.07 51.1 38.87 51.55 39.08 52.59 41.44 52.1 41.61 52.89 41.61 52.89"/><polygon class="cls-1" points="48.41 50.11 46.28 49.66 46.08 50.62 48.21 51.07 48.04 51.86 45.91 51.41 45.54 53.18 44.34 52.93 45.25 48.61 48.58 49.31 48.41 50.11 48.41 50.11"/><path class="cls-1" d="M54.21,58.82l-1.06-1,.17-.95-1.81-1.26-.8.51-1.2-.67,4.28-2.56L55,53.7l-.75,5.11Zm-.36-4.72-1.62,1,1.29.89.33-1.92Z" transform="translate(-0.67 -1.33)"/><path class="cls-1" d="M34.63,57a2.15,2.15,0,0,1-3.11,0L30.1,55.22l.95-.75,1.39,1.78a1.24,1.24,0,0,0,1.93-1.53L33,52.95l.95-.75L35.34,54c.84,1.16.32,2.21-.72,3Z" transform="translate(-0.67 -1.33)"/><path class="cls-1" d="M58.55,54.51a20.85,20.85,0,0,0-30.36.14L27.55,54a21.95,21.95,0,0,1,31.65-.1l-.65.61Z" transform="translate(-0.67 -1.33)"/><path class="cls-1" d="M62.82,72a4.35,4.35,0,0,1-4.24-4.64,4.22,4.22,0,0,1,4.31-4.35,4.49,4.49,0,0,1-.07,9Zm-.15-7.71c-1.64,0-2.13,1.56-2.13,2.62,0,1.55.69,3.82,2.58,3.82,1.35,0,2.14-1.21,2.14-2.65s-.6-3.79-2.59-3.79Z" transform="translate(-0.67 -1.33)"/><path class="cls-1" d="M46.66,70.78c0,.48.09.65.86.8v.33c-.84,0-1.35-.08-1.84-.08s-1,0-1.59.08v-.33c.52-.09.61-.32.61-.94V64.15c0-.37-.16-.54-.61-.56v-.37H48c2.45,0,3.34,1.17,3.34,2.7a2.67,2.67,0,0,1-3,2.65c-.65,0-1.6-.33-1.6-.61,0-.12.08-.12.2-.12s.29,0,.46,0A1.71,1.71,0,0,0,49.39,66c0-1.19-.74-1.62-1.91-1.62l-.82.09v6.3Zm0,0Z" transform="translate(-0.67 -1.33)"/><path class="cls-1" d="M53.92,64.08c0-.37-.16-.54-.61-.56v-.35c.58,0,1.1.08,1.59.08s1,0,1.59-.08v.35c-.45,0-.61.18-.61.56V71c0,.37.16.54.61.56v.33c-.58,0-1.1-.08-1.59-.08s-1,0-1.59.08v-.33c.45,0,.61-.19.61-.56V64.08Z" transform="translate(-0.67 -1.33)"/><path class="cls-1" d="M69.87,64.07c0-.37-.16-.54-.61-.56v-.35c.58,0,1.1.08,1.59.08A6,6,0,0,0,72,63.16l3.66,5.93h0V64.25c0-.69-.44-.74-.8-.74v-.35c.44,0,.86.08,1.27.08s.88,0,1.3-.08v.35c-.45,0-.61.18-.61.56v7.84H75.46l-4.4-6.85h0v5.77c0,.69.44.74.8.74v.33c-.44,0-.86-.08-1.27-.08s-.87,0-1.3.08v-.33c.45,0,.61-.19.61-.56V64.07Z" transform="translate(-0.67 -1.33)"/><path class="cls-1" d="M80.19,68.89a2.48,2.48,0,0,0,2.71,2.18c.8,0,2-.23,2-1.25,0-.82-.84-1-1.47-1.23l-1-.29c-1.39-.41-2.78-1-2.78-2.61,0-2.11,2-2.75,4.08-2.75a7.56,7.56,0,0,1,2.54.44c0,1,.05,1.81.11,2.52H86a2.38,2.38,0,0,0-2.54-1.84c-.68,0-1.83.22-1.83,1.16,0,.75.66,1,1.21,1.13l1.43.41c1.38.39,2.66.9,2.66,2.67s-1.82,2.76-4,2.76a9,9,0,0,1-3-.49c0-1.08,0-2-.11-2.81h.33Zm0,0Z" transform="translate(-0.67 -1.33)"/><path class="cls-1" d="M11.28,64.07c0-.37-.16-.54-.61-.56v-.35c.58,0,1.1.08,1.59.08s1,0,1.59-.08v.35c-.45,0-.61.18-.61.56V66.7h3.21V64.07c0-.37-.16-.54-.61-.56v-.35c.58,0,1.1.08,1.59.08s1,0,1.59-.08v.35c-.45,0-.61.18-.61.56V71c0,.37.16.54.61.56v.34c-.58,0-1.1-.08-1.59-.08s-1,0-1.59.08v-.34c.45,0,.61-.19.61-.56V68H13.24v3c0,.37.16.54.61.56v.34c-.58,0-1.1-.08-1.59-.08s-1,0-1.59.08v-.34c.45,0,.61-.19.61-.56V64.07Zm0,0Z" transform="translate(-0.67 -1.33)"/><path class="cls-1" d="M23.92,68.12c.35-.94.77-2,1.07-3h0a24.93,24.93,0,0,0,.77,3Zm-3.21,3.79c.46,0,.92-.08,1.38-.08s.92,0,1.36.08v-.33c-.44,0-.62-.19-.62-.42a1.42,1.42,0,0,1,.11-.46l.58-1.56h2.58l.42,1.28a2.21,2.21,0,0,1,.13.66c0,.3-.17.41-.66.5v.33c.57,0,1.14-.08,1.71-.08s1.13,0,1.68.08v-.33c-.4-.11-.59-.28-.8-.86l-2.44-7.54c-.41,0-.84.08-1.24.08s-.82,0-1.25-.08v.35c.36,0,.5.21.5.34a1.81,1.81,0,0,1-.17.52L21.4,71a.81.81,0,0,1-.69.61v.33Z" transform="translate(-0.67 -1.33)"/><path class="cls-1" d="M32.07,65.32c0-.37,0-.74,0-1.27s-.09-.46-.6-.53v-.35c.4,0,.87.08,1.35.08s1,0,1.43-.08l2.32,6.15,2.08-6.15c.46,0,.92.08,1.38.08s.93,0,1.38-.08v.35c-.46,0-.53.18-.53.54S41,65,41,65.48l.42,5.66c0,.35.41.4.68.44v.33c-.57,0-1.15-.08-1.72-.08s-1.15,0-1.7.08v-.33c.65-.08.82-.2.82-.81,0-.32,0-.92-.08-1.35l-.3-4h0L36.9,72H35.78l-2.53-6.59h0l-.11,3.88c0,.69,0,1,0,1.4,0,.66.07.81.86.9v.33c-.53,0-1-.08-1.52-.08s-1,0-1.39.08v-.33c.52,0,.73-.16.76-.72l.29-5.54Z" transform="translate(-0.67 -1.33)"/><path class="cls-1" d="M8.67,71.42a5.43,5.43,0,0,1-3.06,1,4.83,4.83,0,0,1-4.94-5,4.93,4.93,0,0,1,5.21-5.05,7.13,7.13,0,0,1,2.4.36c0,1,.05,2,.13,2.93H8A2.17,2.17,0,0,0,5.7,63.8c-1.67,0-3,1.31-3,3.53A3.56,3.56,0,0,0,6,70.89a4.88,4.88,0,0,0,2.79-1.11l-.17,1.65Z" transform="translate(-0.67 -1.33)"/><path class="cls-1" d="M23,76.7c0-.29-.12-.42-.47-.43V76c.45,0,.85.06,1.23.06s1.05,0,1.35-.06v.28c-.52,0-.59.28-.59.56v5h1.89c.67,0,1-.31,1.12-1.08h.33a11.79,11.79,0,0,0-.25,2H22.55v-.28c.35,0,.47-.14.47-.43V76.7Z" transform="translate(-0.67 -1.33)"/><path class="cls-1" d="M29.53,76.74c0-.29-.12-.42-.47-.43V76h5.17c0,.56,0,1,.08,1.57H34c-.1-.56-.24-.76-.8-.76H31v2h1.36c.46,0,.53-.15.59-.52h.28c0,.26-.06.7-.06,1a9.7,9.7,0,0,0,.06,1H33c-.06-.37-.13-.52-.59-.52H31v2.13h2.3c.55,0,.73-.18.9-1h.34a19.49,19.49,0,0,0-.12,1.95H29.06v-.28c.35,0,.47-.14.47-.43v-5.3Z" transform="translate(-0.67 -1.33)"/><path class="cls-1" d="M35.81,82.47a.63.63,0,0,0,.53-.47l2-5.07a1.35,1.35,0,0,0,.13-.4c0-.1-.11-.27-.39-.27V76c.33,0,.64.06,1,.06s.64,0,1-.06l1.88,5.82c.15.45.31.58.61.66v.28c-.43,0-.87-.06-1.3-.06s-.88,0-1.32.06v-.28c.38-.07.51-.15.51-.39a1.77,1.77,0,0,0-.1-.51l-.33-1H38l-.45,1.2a1.06,1.06,0,0,0-.08.36c0,.18.14.3.48.33v.28c-.35,0-.71-.06-1.05-.06s-.71,0-1.06.06v-.28Zm3.92-2.66a19.23,19.23,0,0,1-.59-2.35h0c-.24.82-.56,1.62-.83,2.35Z" transform="translate(-0.67 -1.33)"/><path class="cls-1" d="M48,80.35c0-.41-.19-.43-.64-.44v-.34c.42,0,.84.06,1.27.06s.91,0,1.37-.06v.32c-.36,0-.54.1-.54.56v2.29h-.59l-.23-.68a2.83,2.83,0,0,1-2,.82,3.21,3.21,0,0,1-3.15-3.43,3.39,3.39,0,0,1,3.69-3.57,3.93,3.93,0,0,1,2,.48c0,.5,0,1.08.06,1.79h-.29a1.73,1.73,0,0,0-1.85-1.36A2.13,2.13,0,0,0,45,79.19c0,1.27.72,2.7,1.9,2.7.73,0,1.13-.34,1.13-.81v-.73Zm0,0Z" transform="translate(-0.67 -1.33)"/><path class="cls-1" d="M52,76.7c0-.29-.12-.42-.47-.43V76c.33,0,.75.06,1.18.06s1,0,1.36-.06v.28c-.44,0-.55.1-.55.5V80.6c0,1.16.48,1.38,1.31,1.38s1.31-.25,1.31-1.38V76.77c0-.4-.11-.48-.55-.5V76c.41,0,.83.06,1.36.06s.85,0,1.18-.06v.28c-.35,0-.47.14-.47.43v3.68c0,1.89-1,2.5-2.82,2.5S52,82.27,52,80.52V76.7Zm0,0Z" transform="translate(-0.67 -1.33)"/><path class="cls-1" d="M60.33,76.74c0-.29-.12-.42-.47-.43V76H65c0,.56,0,1,.08,1.57h-.28c-.1-.56-.24-.76-.8-.76H61.85v1.95h1.36c.46,0,.53-.15.59-.52h.28c0,.26-.06.7-.06,1s0,.73.06,1H63.8c-.06-.37-.13-.52-.59-.52H61.85v2.16h2.3c.55,0,.73-.18.9-1h.34c-.09.84-.11,1.38-.12,1.95h-5.4v-.28c.35,0,.47-.14.47-.43v-5.3Z" transform="translate(-0.67 -1.33)"/><path class="cls-1" d="M67,85.5a1.22,1.22,0,1,0-1.24-1.23A1.22,1.22,0,0,0,67,85.5Zm-1-1.23a1,1,0,1,1,1,1,1,1,0,0,1-1-1Zm.74.1H67l.37.61h.24l-.4-.62a.37.37,0,0,0,.37-.39c0-.28-.16-.4-.5-.4h-.54V85h.21v-.61Zm0-.18v-.44H67c.15,0,.31,0,.31.21s-.16.23-.34.23Z" transform="translate(-0.67 -1.33)"/></svg>